HIERARCHY
ROOT Character1_Hips
{
  OFFSET 65.0335 98.2072 -30.3279
  CHANNELS 6 Xposition Yposition Zposition Zrotation Xrotation Yrotation
  JOINT Character1_Spine
  {
    OFFSET 0 8.754 -1.339
    CHANNELS 3 Zrotation Xrotation Yrotation
    JOINT Character1_Spine1
    {
      OFFSET 0 10.855 -0.645
      CHANNELS 3 Zrotation Xrotation Yrotation
      JOINT Character1_LeftShoulder
      {
        OFFSET 1.467 27.745 1.178
        CHANNELS 3 Zrotation Xrotation Yrotation
        JOINT Character1_LeftArm
        {
          OFFSET 18.4859 -1.858 0.275001
          CHANNELS 3 Zrotation Xrotation Yrotation
          JOINT Character1_LeftForeArm
          {
            OFFSET 31.7982 2.36 2.92101
            CHANNELS 3 Zrotation Xrotation Yrotation
            JOINT Character1_LeftHand
            {
              OFFSET 29.0015 1.642 2.1119
              CHANNELS 3 Zrotation Xrotation Yrotation
              End Site
              {
                OFFSET 0.269758 0.141128 0.89614
              }
            }
            JOINT L_Radius_RIGMESH
            {
              OFFSET 0.592911 0.209926 -0.435177
              CHANNELS 3 Zrotation Xrotation Yrotation
              End Site
              {
                OFFSET 0 0 0
              }
            }
          }
          JOINT L_Humerus_RIGMESH
          {
            OFFSET 0.000383861 -0.000257932 -6.47351e-005
            CHANNELS 3 Zrotation Xrotation Yrotation
            End Site
            {
              OFFSET 0 0 0
            }
          }
        }
        JOINT L_Shoulder_RIGMESH
        {
          OFFSET 3.24498e-005 -0.000608592 -0.000527677
          CHANNELS 3 Zrotation Xrotation Yrotation
          End Site
          {
            OFFSET 0 0 0
          }
        }
      }
      JOINT Character1_RightShoulder
      {
        OFFSET -1.467 27.745 1.178
        CHANNELS 3 Zrotation Xrotation Yrotation
        JOINT Character1_RightArm
        {
          OFFSET -18.486 -1.858 0.275
          CHANNELS 3 Zrotation Xrotation Yrotation
          JOINT Character1_RightForeArm
          {
            OFFSET -31.798 2.35963 2.92082
            CHANNELS 3 Zrotation Xrotation Yrotation
            JOINT Character1_RightHand
            {
              OFFSET -29.0007 1.64166 2.112
              CHANNELS 3 Zrotation Xrotation Yrotation
              End Site
              {
                OFFSET 161.773 0.141827 0.896322
              }
            }
            JOINT R_Radius_RIGMESH
            {
              OFFSET 104.095 0.21029 -0.434995
              CHANNELS 3 Zrotation Xrotation Yrotation
              End Site
              {
                OFFSET 0 0 0
              }
            }
          }
          JOINT R_Humerus_RIGMESH
          {
            OFFSET 39.9064 -0.000257932 -6.47351e-005
            CHANNELS 3 Zrotation Xrotation Yrotation
            End Site
            {
              OFFSET 0 0 0
            }
          }
        }
        JOINT R_Shoulder_RIGMESH
        {
          OFFSET -3.24498e-005 -0.000608592 -0.000527677
          CHANNELS 3 Zrotation Xrotation Yrotation
          End Site
          {
            OFFSET 0 0 0
          }
        }
      }
      JOINT Character1_Neck
      {
        OFFSET 0 30.836 0.626
        CHANNELS 3 Zrotation Xrotation Yrotation
        JOINT Character1_Head
        {
          OFFSET 0 8.074 3.498
          CHANNELS 3 Zrotation Xrotation Yrotation
          End Site
          {
            OFFSET 0 -0.00153379 1.54668e-005
          }
        }
        JOINT Neck_RIGMESH
        {
          OFFSET -0.550491 0.102169 -0.523555
          CHANNELS 3 Zrotation Xrotation Yrotation
          End Site
          {
            OFFSET 0 0 0
          }
        }
      }
      JOINT Torso_RIGMESH
      {
        OFFSET 0 -0.000828813 -0.000380861
        CHANNELS 3 Zrotation Xrotation Yrotation
        End Site
        {
          OFFSET 0 0 0
        }
      }
    }
    JOINT Spine_RIGMESH
    {
      OFFSET -0.0408326 0.0667574 0.244719
      CHANNELS 3 Zrotation Xrotation Yrotation
      End Site
      {
        OFFSET 0 0 0
      }
    }
  }
  JOINT Character1_RightUpLeg
  {
    OFFSET -9.035 -4.63425 1.845
    CHANNELS 3 Zrotation Xrotation Yrotation
    JOINT Character1_RightLeg
    {
      OFFSET -0.919521 -40.345 1.155
      CHANNELS 3 Zrotation Xrotation Yrotation
      JOINT Character1_RightFoot
      {
        OFFSET 1.95452 -45.2655 -4.18888
        CHANNELS 3 Zrotation Xrotation Yrotation
        JOINT Character1_RightToeBase
        {
          OFFSET 1.87056 -6.69517 14.7145
          CHANNELS 3 Zrotation Xrotation Yrotation
          End Site
          {
            OFFSET 0 0 0
          }
        }
        JOINT R_Talus_RIGMESH
        {
          OFFSET 8 -7.75529 4.18888
          CHANNELS 3 Zrotation Xrotation Yrotation
          End Site
          {
            OFFSET 0 0 0
          }
        }
      }
      JOINT R_Tibia_RIGMESH
      {
        OFFSET 0 0 0
        CHANNELS 3 Zrotation Xrotation Yrotation
        End Site
        {
          OFFSET 0 0 0
        }
      }
    }
    JOINT R_Femur_RIGMESH
    {
      OFFSET 0 0 0
      CHANNELS 3 Zrotation Xrotation Yrotation
      End Site
      {
        OFFSET 0 0 0
      }
    }
  }
  JOINT Character1_LeftUpLeg
  {
    OFFSET 9.035 -4.63425 1.845
    CHANNELS 3 Zrotation Xrotation Yrotation
    JOINT Character1_LeftLeg
    {
      OFFSET 0.919521 -40.345 1.155
      CHANNELS 3 Zrotation Xrotation Yrotation
      JOINT Character1_LeftFoot
      {
        OFFSET -1.95452 -45.2655 -4.18888
        CHANNELS 3 Zrotation Xrotation Yrotation
        JOINT Character1_LeftToeBase
        {
          OFFSET -1.87056 -6.69517 14.7145
          CHANNELS 3 Zrotation Xrotation Yrotation
          End Site
          {
            OFFSET 0 0 0
          }
        }
        JOINT L_Talus_RIGMESH
        {
          OFFSET -8 -7.75529 4.18888
          CHANNELS 3 Zrotation Xrotation Yrotation
          End Site
          {
            OFFSET 0 0 0
          }
        }
      }
      JOINT L_Tibia_RIGMESH
      {
        OFFSET 0 0 0
        CHANNELS 3 Zrotation Xrotation Yrotation
        End Site
        {
          OFFSET 0 0 0
        }
      }
    }
    JOINT L_Femur_RIGMESH
    {
      OFFSET 0 0 0
      CHANNELS 3 Zrotation Xrotation Yrotation
      End Site
      {
        OFFSET 0 0 0
      }
    }
  }
  JOINT Pelvis_RIGMESH
  {
    OFFSET 0 0 0
    CHANNELS 3 Zrotation Xrotation Yrotation
    End Site
    {
      OFFSET 0 0 0
    }
  }
}
MOTION
Frames:	8
Frame Time:	0.00833333
65.0335 98.2072 -30.3279 -3.15158 -2.97564 -178.122 -6.08778e-016 0 7.95139e-016 3.67018 -1.59771 0.244228 2.19914e-007 9.65792e-006 -6.04198e-007 -47.8614 16.2814 0.491604 -1.99513e-015 3.18055e-015 -25.8007 -11.4547 -25.0037 -4.75376 -7.15625e-015 -3.18055e-015 3.18055e-015 1.78906e-015 3.18055e-015 3.97569e-016 8.88319e-016 0 -0 -6.33626e-016 -1.98785e-016 -0 52.072 9.90984 7.53555 8.40558e-015 -1.59028e-015 22.5112 -13.188 11.2864 2.28709 7.95139e-016 -1.59028e-015 3.18055e-015 1.17283e-014 -1.59028e-015 -0 1.61513e-016 0 -0 1.61513e-016 -1.98785e-016 -0 -2.55064 17.2411 -10.7383 -5.23605 4.79146 -1.87112 1.61513e-016 -1.98785e-016 -0 -0.560871 -2.98475 0.107499 0.376891 -12.4449 11.7133 1.48594e-016 18.9545 -1.68145e-015 -7.59606 -24.1795 -17.4881 -0.0641954 -20.117 -0.366616 9.93923e-017 3.18055e-015 3.97569e-016 3.97569e-016 -1.59028e-015 -0 0 0 -0 -0.676144 -15.2314 8.85233 3.97569e-016 24.8494 -0 4.48814 -9.6998 15.4875 0.0373869 -17.1569 0.305841 -3.97569e-016 -3.97569e-016 -0 -3.97569e-016 -1.59028e-015 -0 3.97569e-016 0 -0 -6.08778e-016 0 7.95139e-016 
65.048 98.4277 -30.6309 -3.05547 -3.07572 -178.729 -4.5969e-016 0 -1.98785e-016 3.40653 -1.25944 0.633164 2.19914e-007 9.65792e-006 -6.04198e-007 -44.3319 15.6712 1.7688 -6.41073e-015 3.18055e-015 -26.072 -11.5102 -26.3758 -5.29517 -5.56597e-015 0 -0 -8.15017e-015 3.18055e-015 3.97569e-015 -6.21202e-017 0 -5.96354e-016 -2.79541e-015 0 -0 49.2538 9.08956 6.85488 1.06678e-015 1.59028e-015 22.2914 -13.0379 10.9401 2.21947 -6.36111e-015 -6.36111e-015 3.18055e-015 -2.5842e-015 0 -0 3.97569e-016 0 -1.98785e-016 -2.00027e-015 0 -0 -2.20782 16.8534 -10.7272 -5.72291 5.51673 -2.10613 -2.00027e-015 0 -0 -0.845795 -3.12005 0.361691 0.514706 -12.075 11.8864 0 18.0977 -0 -7.10917 -22.7141 -17.5076 -0.0646412 -20.0409 -0.364835 3.97569e-016 -3.18055e-015 7.95139e-016 7.95139e-016 0 -3.18055e-015 7.95139e-016 1.59028e-015 1.59028e-015 -0.146016 -15.8118 8.58009 -1.86485e-015 24.7653 3.50269e-015 3.40178 -6.54504 14.3857 0.032392 -16.8997 0.300161 1.19271e-015 -7.95139e-016 -6.36111e-015 3.97569e-016 0 3.18055e-015 -3.97569e-016 1.59028e-015 3.18055e-015 -4.5969e-016 0 -1.98785e-016 
65.0167 98.6575 -30.9304 -3.0231 -3.1846 -179.423 6.33626e-016 3.97569e-016 1.98785e-016 3.07413 -0.858503 1.07319 2.19914e-007 9.65792e-006 -6.04198e-007 -40.6086 15.332 3.26994 1.57461e-015 3.18055e-015 -26.3388 -11.6247 -27.9559 -5.93093 -8.74653e-015 3.18055e-015 -3.18055e-015 -3.97569e-015 3.18055e-015 -0 -9.19379e-016 0 -1.98785e-016 -9.56651e-016 0 -1.98785e-016 46.13 8.36023 5.75461 -6.4749e-016 1.59028e-015 22.154 -12.939 10.4349 2.1359 -7.95139e-016 7.95139e-015 3.18055e-015 1.78906e-015 -1.59028e-015 -7.95139e-016 -9.31803e-016 0 -1.98785e-016 -1.61513e-016 0 -1.98785e-016 -1.96027 16.3806 -10.685 -5.60795 5.81003 -2.15016 -1.61513e-016 0 -1.98785e-016 -1.21276 -2.86309 0.778029 0.555201 -11.7606 11.9129 0 17.2529 -0 -6.36745 -20.9122 -17.1549 -0.0548228 -18.5409 -0.33545 9.93923e-017 3.18055e-015 -7.95139e-016 5.96354e-016 0 -3.18055e-015 0 1.59028e-015 -0 0.303266 -16.2894 8.32683 -7.95139e-016 24.7267 -0 2.08271 -2.30175 12.6036 0.0322147 -15.2797 0.271939 3.97569e-016 0 9.54166e-015 5.96354e-016 0 -0 -7.95139e-016 -4.77083e-015 -0 6.33626e-016 3.97569e-016 1.98785e-016 
64.9329 98.8988 -31.207 -3.18803 -3.32485 179.72 7.76503e-016 -7.95139e-016 -0 2.51216 -0.301052 1.63968 2.19914e-007 9.65792e-006 -6.04198e-007 -36.7621 15.1973 5.04712 -2.66614e-015 0 -26.5291 -11.7993 -29.4866 -6.55738 7.95139e-016 0 -0 -3.97569e-016 0 -0 -1.76421e-015 0 -0 -4.96962e-017 1.19271e-015 -0 42.9128 7.16807 4.24116 -2.78788e-015 -1.59028e-015 21.9935 -12.8372 10.5516 2.14038 3.18055e-015 -4.77083e-015 -0 -6.85807e-015 0 -7.95139e-016 -6.21202e-017 1.19271e-015 1.98785e-016 7.45443e-016 1.19271e-015 -0 -1.73115 15.7587 -10.6041 -5.18644 5.92618 -2.09829 7.45443e-016 1.19271e-015 -0 -1.638 -2.33024 1.25838 0.354493 -11.5957 11.6385 7.4171e-016 16.473 -3.31669e-015 -5.34473 -18.6485 -16.2976 -0.03625 -15.2352 -0.272342 -1.98785e-016 4.77083e-015 7.95139e-016 -0 -1.59028e-015 -0 0 0 -4.77083e-015 0.474356 -16.3824 8.23877 3.97569e-016 24.6757 -0 1.39701 0.372194 11.5709 0.0448522 -16.8217 0.30241 2.64834e-031 4.77083e-015 -3.18055e-015 5.96354e-016 0 -4.77083e-015 1.98785e-016 -1.59028e-015 -0 7.76503e-016 -7.95139e-016 -0 
64.8032 99.1723 -31.4183 -3.48354 -3.53722 178.824 9.69075e-016 0 -0 1.7684 0.468456 2.21519 2.19914e-007 9.65792e-006 -6.04198e-007 -32.9381 15.0265 7.04709 1.0492e-014 3.18055e-015 -26.6451 -12.0052 -30.8405 -7.12149 -3.18055e-015 -3.18055e-015 -3.18055e-015 1.19271e-015 3.18055e-015 -0 1.20513e-015 0 -0 -1.70209e-015 0 -1.98785e-016 39.6348 5.45282 2.36778 1.00565e-014 -1.59028e-015 21.8027 -12.7253 11.1509 2.21238 1.31198e-014 1.59028e-015 6.36111e-015 4.67144e-015 -1.59028e-015 1.19271e-015 -9.06955e-016 0 3.97569e-016 -9.06955e-016 0 -0 -1.43274 14.9458 -10.4821 -4.7569 6.13335 -2.04895 -9.06955e-016 0 -0 -2.09433 -1.62866 1.69949 0.034655 -11.6521 11.2588 -5.96354e-016 15.8456 -0 -4.37739 -16.2838 -15.4491 -0.0202574 -11.4466 -0.202499 9.93923e-017 1.59028e-015 1.59028e-015 1.98785e-016 1.59028e-015 -1.59028e-015 -3.97569e-016 1.59028e-015 1.59028e-015 0.449054 -16.3691 8.34664 3.97569e-016 24.5596 -0 1.03309 1.9967 11.0217 0.0588364 -19.1796 0.347927 1.59028e-015 -1.59028e-015 -6.36111e-015 0 0 -0 3.97569e-016 0 -0 9.69075e-016 0 -0 
64.6512 99.4812 -31.53 -3.79321 -3.80911 178.145 0 7.95139e-016 -0 0.973995 1.41827 2.56622 2.19914e-007 9.65792e-006 -6.04198e-007 -29.2821 14.6909 9.32063 -4.45022e-015 0 -26.7 -12.2061 -31.9241 -7.5799 -4.77083e-015 3.18055e-015 -6.36111e-015 3.18055e-015 0 -0 -1.40392e-015 7.95139e-016 -9.93923e-017 -1.0312e-015 0 -9.93923e-017 36.2702 3.76402 0.0777175 -1.71188e-015 0 21.7257 -12.6791 11.3155 2.23049 -1.19271e-015 3.18055e-015 -0 -9.93923e-016 0 -3.97569e-016 5.71506e-016 -7.95139e-016 -0 -2.23633e-016 0 -9.93923e-017 -1.029 13.9295 -10.2754 -4.52783 6.66671 -2.06435 -2.23633e-016 0 -9.93923e-017 -2.58058 -0.855189 2.03956 -0.298566 -11.8863 10.6753 -4.05261e-017 15.402 1.64952e-015 -3.62657 -14.1324 -14.9163 -0.0103012 -8.20014 -0.144124 9.93923e-017 1.59028e-015 7.95139e-016 3.97569e-016 -7.95139e-016 -1.59028e-015 3.97569e-016 4.77083e-015 1.59028e-015 0.376133 -16.5098 8.44766 0 24.4029 -0 0.708829 3.51711 10.1762 0.0658319 -20.239 0.368769 7.95139e-016 1.59028e-015 -6.36111e-015 -3.97569e-016 1.59028e-015 1.59028e-015 3.97569e-016 0 -7.95139e-016 0 7.95139e-016 -0 
64.511 99.7898 -31.5187 -3.97892 -4.08883 177.702 -2.48481e-016 0 3.97569e-016 0.288419 2.62488 2.76847 2.19914e-007 9.65792e-006 -6.04198e-007 -25.8447 14.2404 11.8503 -1.5968e-015 -3.18055e-015 -26.659 -12.3403 -32.4199 -7.78414 3.18055e-015 -3.18055e-015 1.59028e-015 -7.95139e-016 0 -0 1.34801e-015 7.95139e-016 1.98785e-016 -2.46617e-015 0 4.96962e-017 32.8628 2.34053 -2.74324 -7.705e-015 0 21.7545 -12.6842 10.6324 2.134 -5.96354e-015 0 -0 -2.68359e-015 0 -7.95139e-016 -1.68346e-015 -7.95139e-016 -9.93923e-017 -1.66482e-015 0 4.96962e-017 -0.607116 12.7318 -10.0529 -4.31751 7.45859 -2.07085 -1.66482e-015 0 4.96962e-017 -3.16457 0.011319 2.36238 -0.516782 -12.2416 9.86116 -3.97569e-016 15.0741 -0 -3.07973 -12.3271 -14.7177 -0.00435295 -4.32883 -0.0757859 0 0 -0 4.96962e-016 7.95139e-016 -0 -9.93923e-016 1.59028e-015 -1.59028e-015 0.420608 -16.7701 8.3796 -9.54362e-016 24.2395 8.72018e-016 0.443216 4.95196 9.24468 0.0741456 -21.406 0.392042 2.64834e-031 3.18055e-015 -4.77083e-015 -0 0 7.95139e-016 -5.96354e-016 3.18055e-015 7.95139e-016 -2.48481e-016 0 3.97569e-016 
64.3451 100.113 -31.3494 -4.19278 -4.46067 177.337 -2.48481e-016 -1.59028e-015 3.97569e-016 -0.397182 4.09872 2.99658 2.19914e-007 9.65792e-006 -6.04198e-007 -22.7283 13.7257 14.3811 -5.32488e-015 0 -26.3692 -12.6051 -32.8642 -7.93358 -1.98785e-015 0 -2.38542e-015 -3.97569e-015 0 3.18055e-015 -6.02566e-016 3.18055e-015 -2.48481e-016 -5.71506e-016 1.59028e-015 -1.49089e-016 29.5171 0.895407 -6.09649 1.91482e-015 -3.18055e-015 21.8058 -12.7002 9.64987 1.9967 -9.14409e-015 0 1.59028e-015 -3.97569e-016 -3.18055e-015 1.59028e-015 2.42269e-016 1.59028e-015 4.96962e-017 2.36057e-016 1.59028e-015 -1.49089e-016 -0.378284 11.3948 -9.90018 -4.12699 8.30571 -2.09912 2.36057e-016 1.59028e-015 -1.49089e-016 -3.74722 1.06415 2.62367 -0.811006 -12.9027 8.95375 -4.09961e-016 14.8735 8.22703e-016 -2.65453 -10.7512 -14.7658 -0.00130933 -0.306305 -0.0054267 1.98785e-016 -7.95139e-016 -0 -1.98785e-016 1.59028e-015 -0 -3.97569e-016 1.59028e-015 -0 0.410259 -17.2901 8.19322 -1.59028e-015 24.127 -0 0.23479 6.32439 8.30139 0.0845612 -22.7802 0.419947 0 0 -0 -5.96354e-016 0 7.95139e-016 -1.59028e-015 1.59028e-015 -0 -2.48481e-016 -1.59028e-015 3.97569e-016 
